<mxfile host="app.diagrams.net" modified="2021-10-16T11:27:25.477Z" agent="5.0 (Windows NT 10.0; Win64; x64) AppleWebKit/537.36 (KHTML, like Gecko) Chrome/94.0.4606.61 Safari/537.36" etag="OCo_GcMFdF5oWu0jyU6L" version="15.4.3" type="github">
  <diagram id="bzLONIPxVzyfB-JbPzbP" name="Page-1">
    <mxGraphModel dx="782" dy="706" grid="1" gridSize="10" guides="1" tooltips="1" connect="1" arrows="1" fold="1" page="1" pageScale="1" pageWidth="827" pageHeight="1169" math="0" shadow="0">
      <root>
        <mxCell id="0" />
        <mxCell id="1" parent="0" />
        <mxCell id="xnuN2vcYG2oAX09H3vMS-1" value="Fahrzeug" style="rounded=0;whiteSpace=wrap;html=1;" vertex="1" parent="1">
          <mxGeometry x="440" y="410" width="120" height="60" as="geometry" />
        </mxCell>
        <mxCell id="xnuN2vcYG2oAX09H3vMS-13" value="" style="edgeStyle=none;rounded=0;orthogonalLoop=1;jettySize=auto;html=1;" edge="1" parent="1" source="xnuN2vcYG2oAX09H3vMS-2" target="xnuN2vcYG2oAX09H3vMS-1">
          <mxGeometry relative="1" as="geometry" />
        </mxCell>
        <object placeholders="1" MergeType="XOR" id="xnuN2vcYG2oAX09H3vMS-2">
          <mxCell style="shape=stencil(nVTLboMwEPwaH1sBFh9Q0bSn5tJKPTuwASvGRrabhHx9ba9RgUKaVEKydvYx4/UuhBamYR2QLJGsBUKfSZa9ggTNBL8wy5UslJRQWqWdx4U1GJMmCdqnmc1M56IRPDLN2U4AeozV6gAnXtlYg8sGNLfeSzckeXIx/qNFiZSO3Ew8I78rxrh0uckZiyWPOdL00UarcwwtWNBRJqI/d90G4OV2minJQPoXzeedNOn/aDb33mbWtPQ2mvcFGlo4ZO3haLFj5aHW6ktWi+JACN4ZWO3z8qzNZnH53nsuBI7eouQVYS5PabiieK+kNfziJYcjKKH5NSE+w/YipIRz1N3lFAtni5uDsSTL30DX8NH7lY1vFzuWT1s2mG6Pa4lQCdK/aYCPI7zlVTUsaYAf8J8wGQnBSmiUqECbdd2ho78aF9BY0gPf);whiteSpace=wrap;html=1;aspect=fixed;noLabel=1;_ElementType=GeneralizationMerge;" vertex="1" parent="1">
            <mxGeometry x="610" y="430" width="20" height="20" as="geometry" />
          </mxCell>
        </object>
        <mxCell id="xnuN2vcYG2oAX09H3vMS-6" value="Neuwagen" style="rounded=0;whiteSpace=wrap;html=1;" vertex="1" parent="1">
          <mxGeometry x="680" y="370" width="120" height="60" as="geometry" />
        </mxCell>
        <mxCell id="xnuN2vcYG2oAX09H3vMS-7" value="Gebrauchtwagen" style="rounded=0;whiteSpace=wrap;html=1;" vertex="1" parent="1">
          <mxGeometry x="680" y="450" width="120" height="60" as="geometry" />
        </mxCell>
        <mxCell id="xnuN2vcYG2oAX09H3vMS-9" value="Baujahr" style="rounded=0;whiteSpace=wrap;html=1;dashed=1;" vertex="1" parent="1">
          <mxGeometry x="440" y="650" width="120" height="60" as="geometry" />
        </mxCell>
        <mxCell id="xnuN2vcYG2oAX09H3vMS-10" value="Fahrzeugbaujahr" style="rhombus;whiteSpace=wrap;html=1;" vertex="1" parent="1">
          <mxGeometry x="440" y="560" width="120" height="40" as="geometry" />
        </mxCell>
        <mxCell id="xnuN2vcYG2oAX09H3vMS-14" value="" style="edgeStyle=none;rounded=0;orthogonalLoop=1;jettySize=auto;html=1;" edge="1" parent="1" source="xnuN2vcYG2oAX09H3vMS-6" target="xnuN2vcYG2oAX09H3vMS-2">
          <mxGeometry relative="1" as="geometry">
            <mxPoint x="620" y="450" as="sourcePoint" />
            <mxPoint x="570" y="450" as="targetPoint" />
          </mxGeometry>
        </mxCell>
        <mxCell id="xnuN2vcYG2oAX09H3vMS-15" value="" style="edgeStyle=none;rounded=0;orthogonalLoop=1;jettySize=auto;html=1;" edge="1" parent="1" source="xnuN2vcYG2oAX09H3vMS-7" target="xnuN2vcYG2oAX09H3vMS-2">
          <mxGeometry relative="1" as="geometry">
            <mxPoint x="630" y="460" as="sourcePoint" />
            <mxPoint x="580" y="460" as="targetPoint" />
          </mxGeometry>
        </mxCell>
        <mxCell id="xnuN2vcYG2oAX09H3vMS-16" value="1:1&lt;br&gt;Fahrzeug" style="edgeStyle=none;rounded=0;orthogonalLoop=1;jettySize=auto;html=1;endArrow=none;endFill=0;" edge="1" parent="1" source="xnuN2vcYG2oAX09H3vMS-1" target="xnuN2vcYG2oAX09H3vMS-10">
          <mxGeometry relative="1" as="geometry">
            <mxPoint x="690" y="430" as="sourcePoint" />
            <mxPoint x="640" y="446.66666666666663" as="targetPoint" />
          </mxGeometry>
        </mxCell>
        <mxCell id="xnuN2vcYG2oAX09H3vMS-17" value="0:*&lt;br&gt;Baujahr" style="edgeStyle=none;rounded=0;orthogonalLoop=1;jettySize=auto;html=1;endArrow=none;endFill=0;" edge="1" parent="1" source="xnuN2vcYG2oAX09H3vMS-10" target="xnuN2vcYG2oAX09H3vMS-9">
          <mxGeometry relative="1" as="geometry">
            <mxPoint x="510" y="480" as="sourcePoint" />
            <mxPoint x="510" y="530" as="targetPoint" />
          </mxGeometry>
        </mxCell>
        <mxCell id="xnuN2vcYG2oAX09H3vMS-22" value="Farbe" style="rounded=0;whiteSpace=wrap;html=1;" vertex="1" parent="1">
          <mxGeometry x="600" y="650" width="120" height="60" as="geometry" />
        </mxCell>
        <mxCell id="xnuN2vcYG2oAX09H3vMS-23" value="Fahrzeugfarbe" style="rhombus;whiteSpace=wrap;html=1;" vertex="1" parent="1">
          <mxGeometry x="600" y="560" width="120" height="40" as="geometry" />
        </mxCell>
        <mxCell id="xnuN2vcYG2oAX09H3vMS-24" value="1:1&lt;br&gt;Fahrzeug" style="edgeStyle=none;rounded=0;orthogonalLoop=1;jettySize=auto;html=1;endArrow=none;endFill=0;" edge="1" parent="1" target="xnuN2vcYG2oAX09H3vMS-23" source="xnuN2vcYG2oAX09H3vMS-1">
          <mxGeometry relative="1" as="geometry">
            <mxPoint x="640" y="510" as="sourcePoint" />
            <mxPoint x="780" y="486.66666666666663" as="targetPoint" />
          </mxGeometry>
        </mxCell>
        <mxCell id="xnuN2vcYG2oAX09H3vMS-25" value="1:*&lt;br&gt;Farbe" style="edgeStyle=none;rounded=0;orthogonalLoop=1;jettySize=auto;html=1;endArrow=none;endFill=0;" edge="1" parent="1" source="xnuN2vcYG2oAX09H3vMS-23" target="xnuN2vcYG2oAX09H3vMS-22">
          <mxGeometry relative="1" as="geometry">
            <mxPoint x="650" y="520" as="sourcePoint" />
            <mxPoint x="650" y="570" as="targetPoint" />
          </mxGeometry>
        </mxCell>
        <mxCell id="xnuN2vcYG2oAX09H3vMS-26" value="1:1&lt;br&gt;Fahrzeug" style="edgeStyle=none;rounded=0;orthogonalLoop=1;jettySize=auto;html=1;endArrow=none;endFill=0;" edge="1" parent="1" source="xnuN2vcYG2oAX09H3vMS-1" target="xnuN2vcYG2oAX09H3vMS-27">
          <mxGeometry relative="1" as="geometry">
            <mxPoint x="540" y="480" as="sourcePoint" />
            <mxPoint x="410" y="580" as="targetPoint" />
          </mxGeometry>
        </mxCell>
        <mxCell id="xnuN2vcYG2oAX09H3vMS-27" value="Fahrzeughersteller" style="rhombus;whiteSpace=wrap;html=1;" vertex="1" parent="1">
          <mxGeometry x="310" y="560" width="120" height="40" as="geometry" />
        </mxCell>
        <mxCell id="xnuN2vcYG2oAX09H3vMS-28" value="Hersteller" style="rounded=0;whiteSpace=wrap;html=1;" vertex="1" parent="1">
          <mxGeometry x="310" y="650" width="120" height="60" as="geometry" />
        </mxCell>
        <mxCell id="xnuN2vcYG2oAX09H3vMS-29" value="1:*&lt;br&gt;Hersteller" style="edgeStyle=none;rounded=0;orthogonalLoop=1;jettySize=auto;html=1;endArrow=none;endFill=0;" edge="1" parent="1" target="xnuN2vcYG2oAX09H3vMS-28" source="xnuN2vcYG2oAX09H3vMS-27">
          <mxGeometry relative="1" as="geometry">
            <mxPoint x="370" y="625" as="sourcePoint" />
            <mxPoint x="380" y="595" as="targetPoint" />
          </mxGeometry>
        </mxCell>
        <mxCell id="xnuN2vcYG2oAX09H3vMS-30" value="1:1&lt;br&gt;Fahrzeug" style="edgeStyle=none;rounded=0;orthogonalLoop=1;jettySize=auto;html=1;endArrow=none;endFill=0;" edge="1" parent="1" target="xnuN2vcYG2oAX09H3vMS-31" source="xnuN2vcYG2oAX09H3vMS-1">
          <mxGeometry relative="1" as="geometry">
            <mxPoint x="325.625" y="370" as="sourcePoint" />
            <mxPoint x="260" y="480" as="targetPoint" />
          </mxGeometry>
        </mxCell>
        <mxCell id="xnuN2vcYG2oAX09H3vMS-31" value="Fahrzeugmodell" style="rhombus;whiteSpace=wrap;html=1;" vertex="1" parent="1">
          <mxGeometry x="160" y="560" width="120" height="40" as="geometry" />
        </mxCell>
        <mxCell id="xnuN2vcYG2oAX09H3vMS-32" value="Modell" style="rounded=0;whiteSpace=wrap;html=1;" vertex="1" parent="1">
          <mxGeometry x="160" y="650" width="120" height="60" as="geometry" />
        </mxCell>
        <mxCell id="xnuN2vcYG2oAX09H3vMS-33" value="1:*&lt;br&gt;Modell" style="edgeStyle=none;rounded=0;orthogonalLoop=1;jettySize=auto;html=1;endArrow=none;endFill=0;" edge="1" parent="1" source="xnuN2vcYG2oAX09H3vMS-31" target="xnuN2vcYG2oAX09H3vMS-32">
          <mxGeometry relative="1" as="geometry">
            <mxPoint x="220" y="560" as="sourcePoint" />
            <mxPoint x="230" y="530" as="targetPoint" />
          </mxGeometry>
        </mxCell>
        <mxCell id="xnuN2vcYG2oAX09H3vMS-34" value="1:1&lt;br&gt;Fahrzeug" style="edgeStyle=none;rounded=0;orthogonalLoop=1;jettySize=auto;html=1;endArrow=none;endFill=0;" edge="1" parent="1" target="xnuN2vcYG2oAX09H3vMS-35" source="xnuN2vcYG2oAX09H3vMS-1">
          <mxGeometry relative="1" as="geometry">
            <mxPoint x="310" y="409.99857142857144" as="sourcePoint" />
            <mxPoint x="130" y="428.57" as="targetPoint" />
          </mxGeometry>
        </mxCell>
        <mxCell id="xnuN2vcYG2oAX09H3vMS-35" value="Fahrzeugpreis" style="rhombus;whiteSpace=wrap;html=1;" vertex="1" parent="1">
          <mxGeometry x="240" y="420" width="120" height="40" as="geometry" />
        </mxCell>
        <mxCell id="xnuN2vcYG2oAX09H3vMS-37" value="0:*&lt;br&gt;Preis" style="edgeStyle=none;rounded=0;orthogonalLoop=1;jettySize=auto;html=1;endArrow=none;endFill=0;" edge="1" parent="1" source="xnuN2vcYG2oAX09H3vMS-35" target="xnuN2vcYG2oAX09H3vMS-38">
          <mxGeometry relative="1" as="geometry">
            <mxPoint x="90" y="508.57" as="sourcePoint" />
            <mxPoint x="90" y="558.5699999999999" as="targetPoint" />
          </mxGeometry>
        </mxCell>
        <mxCell id="xnuN2vcYG2oAX09H3vMS-38" value="Preis" style="rounded=0;whiteSpace=wrap;html=1;dashed=1;" vertex="1" parent="1">
          <mxGeometry x="80" y="410" width="120" height="60" as="geometry" />
        </mxCell>
        <mxCell id="xnuN2vcYG2oAX09H3vMS-40" value="1:1&lt;br&gt;Fahrzeug" style="edgeStyle=none;rounded=0;orthogonalLoop=1;jettySize=auto;html=1;endArrow=none;endFill=0;" edge="1" parent="1" target="xnuN2vcYG2oAX09H3vMS-41" source="xnuN2vcYG2oAX09H3vMS-1">
          <mxGeometry relative="1" as="geometry">
            <mxPoint x="330" y="139.99857142857155" as="sourcePoint" />
            <mxPoint x="150" y="158.57" as="targetPoint" />
          </mxGeometry>
        </mxCell>
        <mxCell id="xnuN2vcYG2oAX09H3vMS-41" value="Fahrzeugzustand" style="rhombus;whiteSpace=wrap;html=1;" vertex="1" parent="1">
          <mxGeometry x="280" y="320" width="120" height="40" as="geometry" />
        </mxCell>
        <mxCell id="xnuN2vcYG2oAX09H3vMS-42" value="Gebrauchszustand" style="rounded=0;whiteSpace=wrap;html=1;" vertex="1" parent="1">
          <mxGeometry x="280" y="130" width="120" height="60" as="geometry" />
        </mxCell>
        <mxCell id="xnuN2vcYG2oAX09H3vMS-43" value="0:*&lt;br&gt;Gebrauchszustand" style="edgeStyle=none;rounded=0;orthogonalLoop=1;jettySize=auto;html=1;endArrow=none;endFill=0;" edge="1" parent="1" source="xnuN2vcYG2oAX09H3vMS-41" target="xnuN2vcYG2oAX09H3vMS-42">
          <mxGeometry relative="1" as="geometry">
            <mxPoint x="110" y="238.57" as="sourcePoint" />
            <mxPoint x="120" y="208.57" as="targetPoint" />
          </mxGeometry>
        </mxCell>
        <mxCell id="xnuN2vcYG2oAX09H3vMS-49" value="Kilometerstand" style="rounded=0;whiteSpace=wrap;html=1;dashed=1;" vertex="1" parent="1">
          <mxGeometry x="440" y="210" width="120" height="60" as="geometry" />
        </mxCell>
        <mxCell id="xnuN2vcYG2oAX09H3vMS-50" value="Fahrzeugkilometerstand" style="rhombus;whiteSpace=wrap;html=1;" vertex="1" parent="1">
          <mxGeometry x="420" y="320" width="160" height="40" as="geometry" />
        </mxCell>
        <mxCell id="xnuN2vcYG2oAX09H3vMS-51" value="1:1&lt;br&gt;Fahrzeug" style="edgeStyle=none;rounded=0;orthogonalLoop=1;jettySize=auto;html=1;endArrow=none;endFill=0;" edge="1" parent="1" target="xnuN2vcYG2oAX09H3vMS-50" source="xnuN2vcYG2oAX09H3vMS-1">
          <mxGeometry relative="1" as="geometry">
            <mxPoint x="660" y="70" as="sourcePoint" />
            <mxPoint x="800" y="46.66666666666663" as="targetPoint" />
          </mxGeometry>
        </mxCell>
        <mxCell id="xnuN2vcYG2oAX09H3vMS-52" value="0:*&lt;br&gt;KIlometerstand" style="edgeStyle=none;rounded=0;orthogonalLoop=1;jettySize=auto;html=1;endArrow=none;endFill=0;" edge="1" parent="1" source="xnuN2vcYG2oAX09H3vMS-50" target="xnuN2vcYG2oAX09H3vMS-49">
          <mxGeometry relative="1" as="geometry">
            <mxPoint x="670" y="80" as="sourcePoint" />
            <mxPoint x="670" y="130" as="targetPoint" />
          </mxGeometry>
        </mxCell>
        <mxCell id="xnuN2vcYG2oAX09H3vMS-53" value="Vorbesitzeranzahl" style="rounded=0;whiteSpace=wrap;html=1;dashed=1;" vertex="1" parent="1">
          <mxGeometry x="110" y="130" width="120" height="60" as="geometry" />
        </mxCell>
        <mxCell id="xnuN2vcYG2oAX09H3vMS-54" value="Farzeugvorbesitzeranzahl" style="rhombus;whiteSpace=wrap;html=1;" vertex="1" parent="1">
          <mxGeometry x="90" y="320" width="160" height="40" as="geometry" />
        </mxCell>
        <mxCell id="xnuN2vcYG2oAX09H3vMS-55" value="1:1&lt;br&gt;Fahrzeug" style="edgeStyle=none;rounded=0;orthogonalLoop=1;jettySize=auto;html=1;endArrow=none;endFill=0;" edge="1" parent="1" target="xnuN2vcYG2oAX09H3vMS-54" source="xnuN2vcYG2oAX09H3vMS-1">
          <mxGeometry relative="1" as="geometry">
            <mxPoint x="180" y="330" as="sourcePoint" />
            <mxPoint x="480" y="-33.33333333333337" as="targetPoint" />
          </mxGeometry>
        </mxCell>
        <mxCell id="xnuN2vcYG2oAX09H3vMS-56" value="0:*&lt;br&gt;KIlometerstand" style="edgeStyle=none;rounded=0;orthogonalLoop=1;jettySize=auto;html=1;endArrow=none;endFill=0;" edge="1" parent="1" source="xnuN2vcYG2oAX09H3vMS-54" target="xnuN2vcYG2oAX09H3vMS-53">
          <mxGeometry relative="1" as="geometry">
            <mxPoint x="350" as="sourcePoint" />
            <mxPoint x="350" y="50" as="targetPoint" />
          </mxGeometry>
        </mxCell>
        <mxCell id="xnuN2vcYG2oAX09H3vMS-57" value="Kunde" style="rounded=0;whiteSpace=wrap;html=1;" vertex="1" parent="1">
          <mxGeometry x="1410" y="490" width="120" height="60" as="geometry" />
        </mxCell>
        <object placeholders="1" MergeType="OR" id="xnuN2vcYG2oAX09H3vMS-58">
          <mxCell style="shape=stencil(nVTLboMwEPwaH1sBFh9Q0bSn5tJKPTuwASvGRrabhHx9ba9RgUKaVEKydvYx4/UuhBamYR2QLJGsBUKfSZa9ggTNBL8wy5UslJRQWqWdx4U1GJMmCdqnmc1M56IRPDLN2U4AeozV6gAnXtlYg8sGNLfeSzckeXIx/qNFiZSO3Ew8I78rxrh0uckZiyWPOdL00UarcwwtWNBRJqI/d90G4OV2minJQPoXzeedNOn/aDb33mbWtPQ2mvcFGlo4ZO3haLFj5aHW6ktWi+JACN4ZWO3z8qzNZnH53nsuBI7eouQVYS5PabiieK+kNfziJYcjKKH5NSE+w/YipIRz1N3lFAtni5uDsSTL30DX8NH7lY1vFzuWT1s2mG6Pa4lQCdK/aYCPI7zlVTUsaYAf8J8wGQnBSmiUqECbdd2ho78aF9BY0gPf);whiteSpace=wrap;html=1;aspect=fixed;noLabel=1;_ElementType=GeneralizationMerge;" vertex="1" parent="1">
            <mxGeometry x="1580" y="510" width="20" height="20" as="geometry" />
          </mxCell>
        </object>
        <mxCell id="xnuN2vcYG2oAX09H3vMS-59" value="" style="edgeStyle=none;rounded=0;orthogonalLoop=1;jettySize=auto;html=1;" edge="1" parent="1" source="xnuN2vcYG2oAX09H3vMS-58" target="xnuN2vcYG2oAX09H3vMS-57">
          <mxGeometry relative="1" as="geometry">
            <mxPoint x="1590" y="530" as="sourcePoint" />
            <mxPoint x="1140" y="570" as="targetPoint" />
          </mxGeometry>
        </mxCell>
        <mxCell id="xnuN2vcYG2oAX09H3vMS-60" value="" style="edgeStyle=none;rounded=0;orthogonalLoop=1;jettySize=auto;html=1;" edge="1" parent="1" source="xnuN2vcYG2oAX09H3vMS-62" target="xnuN2vcYG2oAX09H3vMS-58">
          <mxGeometry relative="1" as="geometry">
            <mxPoint x="1590" y="560" as="sourcePoint" />
            <mxPoint x="1540" y="539" as="targetPoint" />
          </mxGeometry>
        </mxCell>
        <mxCell id="xnuN2vcYG2oAX09H3vMS-61" value="" style="edgeStyle=none;rounded=0;orthogonalLoop=1;jettySize=auto;html=1;" edge="1" parent="1" source="xnuN2vcYG2oAX09H3vMS-63" target="xnuN2vcYG2oAX09H3vMS-58">
          <mxGeometry relative="1" as="geometry">
            <mxPoint x="1600" y="548.166666666667" as="sourcePoint" />
            <mxPoint x="1550" y="549" as="targetPoint" />
          </mxGeometry>
        </mxCell>
        <mxCell id="xnuN2vcYG2oAX09H3vMS-62" value="Verkäufer" style="rounded=0;whiteSpace=wrap;html=1;" vertex="1" parent="1">
          <mxGeometry x="1640" y="530" width="120" height="60" as="geometry" />
        </mxCell>
        <mxCell id="xnuN2vcYG2oAX09H3vMS-63" value="Käufer" style="rounded=0;whiteSpace=wrap;html=1;" vertex="1" parent="1">
          <mxGeometry x="1640" y="450" width="120" height="60" as="geometry" />
        </mxCell>
        <mxCell id="xnuN2vcYG2oAX09H3vMS-64" value="1:1&lt;br&gt;Kunde" style="edgeStyle=none;rounded=0;orthogonalLoop=1;jettySize=auto;html=1;endArrow=none;endFill=0;" edge="1" parent="1" source="xnuN2vcYG2oAX09H3vMS-57" target="xnuN2vcYG2oAX09H3vMS-67">
          <mxGeometry relative="1" as="geometry">
            <mxPoint x="1490" y="580" as="sourcePoint" />
            <mxPoint x="1490" y="630" as="targetPoint" />
          </mxGeometry>
        </mxCell>
        <mxCell id="xnuN2vcYG2oAX09H3vMS-67" value="KundenE-Mail" style="rhombus;whiteSpace=wrap;html=1;" vertex="1" parent="1">
          <mxGeometry x="1410" y="640" width="120" height="40" as="geometry" />
        </mxCell>
        <mxCell id="xnuN2vcYG2oAX09H3vMS-68" value="1:*&lt;br&gt;E-Mail" style="edgeStyle=none;rounded=0;orthogonalLoop=1;jettySize=auto;html=1;endArrow=none;endFill=0;" edge="1" parent="1" source="xnuN2vcYG2oAX09H3vMS-67" target="xnuN2vcYG2oAX09H3vMS-70">
          <mxGeometry relative="1" as="geometry">
            <mxPoint x="1560.0011764705882" y="764" as="sourcePoint" />
            <mxPoint x="1567.06" y="836" as="targetPoint" />
          </mxGeometry>
        </mxCell>
        <mxCell id="xnuN2vcYG2oAX09H3vMS-70" value="E-Mail" style="rounded=0;whiteSpace=wrap;html=1;" vertex="1" parent="1">
          <mxGeometry x="1410" y="770" width="120" height="60" as="geometry" />
        </mxCell>
        <mxCell id="xnuN2vcYG2oAX09H3vMS-71" value="Kundennachname" style="rhombus;whiteSpace=wrap;html=1;" vertex="1" parent="1">
          <mxGeometry x="1400" y="400" width="120" height="40" as="geometry" />
        </mxCell>
        <mxCell id="xnuN2vcYG2oAX09H3vMS-72" value="Kundenvorname" style="rhombus;whiteSpace=wrap;html=1;" vertex="1" parent="1">
          <mxGeometry x="1570" y="640" width="120" height="40" as="geometry" />
        </mxCell>
        <mxCell id="xnuN2vcYG2oAX09H3vMS-73" value="1:1&lt;br&gt;Kunde" style="edgeStyle=none;rounded=0;orthogonalLoop=1;jettySize=auto;html=1;endArrow=none;endFill=0;" edge="1" parent="1" source="xnuN2vcYG2oAX09H3vMS-57" target="xnuN2vcYG2oAX09H3vMS-72">
          <mxGeometry relative="1" as="geometry">
            <mxPoint x="1480" y="568" as="sourcePoint" />
            <mxPoint x="1480" y="660" as="targetPoint" />
          </mxGeometry>
        </mxCell>
        <mxCell id="xnuN2vcYG2oAX09H3vMS-74" value="1:1&lt;br&gt;Kunde" style="edgeStyle=none;rounded=0;orthogonalLoop=1;jettySize=auto;html=1;endArrow=none;endFill=0;" edge="1" parent="1" source="xnuN2vcYG2oAX09H3vMS-71" target="xnuN2vcYG2oAX09H3vMS-57">
          <mxGeometry relative="1" as="geometry">
            <mxPoint x="1501.875" y="568" as="sourcePoint" />
            <mxPoint x="1608.2681564245804" y="713.9106145251399" as="targetPoint" />
          </mxGeometry>
        </mxCell>
        <mxCell id="xnuN2vcYG2oAX09H3vMS-75" value="Vorname" style="rounded=0;whiteSpace=wrap;html=1;" vertex="1" parent="1">
          <mxGeometry x="1570" y="770" width="120" height="60" as="geometry" />
        </mxCell>
        <mxCell id="xnuN2vcYG2oAX09H3vMS-76" value="Nachname" style="rounded=0;whiteSpace=wrap;html=1;" vertex="1" parent="1">
          <mxGeometry x="1400" y="290" width="120" height="60" as="geometry" />
        </mxCell>
        <mxCell id="xnuN2vcYG2oAX09H3vMS-77" value="1:*&lt;br&gt;Vorname" style="edgeStyle=none;rounded=0;orthogonalLoop=1;jettySize=auto;html=1;endArrow=none;endFill=0;" edge="1" parent="1" source="xnuN2vcYG2oAX09H3vMS-72" target="xnuN2vcYG2oAX09H3vMS-75">
          <mxGeometry relative="1" as="geometry">
            <mxPoint x="1501.875" y="568" as="sourcePoint" />
            <mxPoint x="1608.2681564245804" y="713.9106145251399" as="targetPoint" />
          </mxGeometry>
        </mxCell>
        <mxCell id="xnuN2vcYG2oAX09H3vMS-79" value="1:*&lt;br&gt;Nachname" style="edgeStyle=none;rounded=0;orthogonalLoop=1;jettySize=auto;html=1;endArrow=none;endFill=0;" edge="1" parent="1" source="xnuN2vcYG2oAX09H3vMS-76" target="xnuN2vcYG2oAX09H3vMS-71">
          <mxGeometry relative="1" as="geometry">
            <mxPoint x="1626.666666666667" y="747.7777777777783" as="sourcePoint" />
            <mxPoint x="1638.75" y="780" as="targetPoint" />
          </mxGeometry>
        </mxCell>
        <mxCell id="xnuN2vcYG2oAX09H3vMS-80" value="Anschrift" style="rounded=0;whiteSpace=wrap;html=1;" vertex="1" parent="1">
          <mxGeometry x="1250" y="290" width="120" height="60" as="geometry" />
        </mxCell>
        <mxCell id="xnuN2vcYG2oAX09H3vMS-81" value="Kundenanschrift" style="rhombus;whiteSpace=wrap;html=1;" vertex="1" parent="1">
          <mxGeometry x="1250" y="400" width="120" height="40" as="geometry" />
        </mxCell>
        <mxCell id="xnuN2vcYG2oAX09H3vMS-82" value="1:1&lt;br&gt;Kunde" style="edgeStyle=none;rounded=0;orthogonalLoop=1;jettySize=auto;html=1;endArrow=none;endFill=0;" edge="1" parent="1" source="xnuN2vcYG2oAX09H3vMS-81" target="xnuN2vcYG2oAX09H3vMS-57">
          <mxGeometry relative="1" as="geometry">
            <mxPoint x="1471.7964071856286" y="449.40119760479047" as="sourcePoint" />
            <mxPoint x="1477.2222222222226" y="508" as="targetPoint" />
          </mxGeometry>
        </mxCell>
        <mxCell id="xnuN2vcYG2oAX09H3vMS-83" value="1:*&lt;br&gt;Anschrift" style="edgeStyle=none;rounded=0;orthogonalLoop=1;jettySize=auto;html=1;endArrow=none;endFill=0;" edge="1" parent="1" source="xnuN2vcYG2oAX09H3vMS-80" target="xnuN2vcYG2oAX09H3vMS-81">
          <mxGeometry relative="1" as="geometry">
            <mxPoint x="1480" y="700" as="sourcePoint" />
            <mxPoint x="1480" y="780" as="targetPoint" />
          </mxGeometry>
        </mxCell>
        <mxCell id="xnuN2vcYG2oAX09H3vMS-84" value="" style="edgeStyle=none;rounded=0;orthogonalLoop=1;jettySize=auto;html=1;" edge="1" parent="1" source="xnuN2vcYG2oAX09H3vMS-89" target="xnuN2vcYG2oAX09H3vMS-80">
          <mxGeometry relative="1" as="geometry">
            <mxPoint x="242.14" y="190" as="targetPoint" />
            <mxPoint x="306.27285714285745" y="200" as="sourcePoint" />
          </mxGeometry>
        </mxCell>
        <mxCell id="xnuN2vcYG2oAX09H3vMS-86" value="" style="edgeStyle=none;rounded=0;orthogonalLoop=1;jettySize=auto;html=1;" edge="1" parent="1" target="xnuN2vcYG2oAX09H3vMS-89" source="xnuN2vcYG2oAX09H3vMS-90">
          <mxGeometry relative="1" as="geometry">
            <mxPoint x="362" y="140" as="sourcePoint" />
            <mxPoint x="312.1399999999999" y="186.66666666666697" as="targetPoint" />
          </mxGeometry>
        </mxCell>
        <mxCell id="xnuN2vcYG2oAX09H3vMS-87" value="" style="edgeStyle=none;rounded=0;orthogonalLoop=1;jettySize=auto;html=1;" edge="1" parent="1" target="xnuN2vcYG2oAX09H3vMS-89" source="xnuN2vcYG2oAX09H3vMS-91">
          <mxGeometry relative="1" as="geometry">
            <mxPoint x="362.14" y="210" as="sourcePoint" />
            <mxPoint x="312.1399999999999" y="193.33333333333303" as="targetPoint" />
          </mxGeometry>
        </mxCell>
        <object placeholders="1" MergeType="AND" id="xnuN2vcYG2oAX09H3vMS-89">
          <mxCell style="shape=stencil(nVTLboMwEPwaH1sBFh9Q0bSn5tJKPTuwASvGRrabhHx9ba9RgUKaVEKydvYx4/UuhBamYR2QLJGsBUKfSZa9ggTNBL8wy5UslJRQWqWdx4U1GJMmCdqnmc1M56IRPDLN2U4AeozV6gAnXtlYg8sGNLfeSzckeXIx/qNFiZSO3Ew8I78rxrh0uckZiyWPOdL00UarcwwtWNBRJqI/d90G4OV2minJQPoXzeedNOn/aDb33mbWtPQ2mvcFGlo4ZO3haLFj5aHW6ktWi+JACN4ZWO3z8qzNZnH53nsuBI7eouQVYS5PabiieK+kNfziJYcjKKH5NSE+w/YipIRz1N3lFAtni5uDsSTL30DX8NH7lY1vFzuWT1s2mG6Pa4lQCdK/aYCPI7zlVTUsaYAf8J8wGQnBSmiUqECbdd2ho78aF9BY0gPf);whiteSpace=wrap;html=1;aspect=fixed;noLabel=1;_ElementType=GeneralizationMerge;" vertex="1" parent="1">
            <mxGeometry x="1297.5" y="210" width="25" height="25" as="geometry" />
          </mxCell>
        </object>
        <mxCell id="xnuN2vcYG2oAX09H3vMS-90" value="Adresse" style="rounded=0;whiteSpace=wrap;html=1;" vertex="1" parent="1">
          <mxGeometry x="1170" y="90" width="120" height="60" as="geometry" />
        </mxCell>
        <mxCell id="xnuN2vcYG2oAX09H3vMS-91" value="Telefonnummer" style="rounded=0;whiteSpace=wrap;html=1;" vertex="1" parent="1">
          <mxGeometry x="1330" y="90" width="120" height="60" as="geometry" />
        </mxCell>
        <mxCell id="xnuN2vcYG2oAX09H3vMS-92" value="Lieferantenfirmenname" style="rhombus;whiteSpace=wrap;html=1;" vertex="1" parent="1">
          <mxGeometry x="820" y="200" width="160" height="40" as="geometry" />
        </mxCell>
        <mxCell id="xnuN2vcYG2oAX09H3vMS-93" value="Kundenvolljährigkeit" style="rhombus;whiteSpace=wrap;html=1;" vertex="1" parent="1">
          <mxGeometry x="1530" y="400" width="120" height="40" as="geometry" />
        </mxCell>
        <mxCell id="xnuN2vcYG2oAX09H3vMS-94" value="boolean" style="rounded=0;whiteSpace=wrap;html=1;dashed=1;" vertex="1" parent="1">
          <mxGeometry x="1530" y="290" width="120" height="60" as="geometry" />
        </mxCell>
        <mxCell id="xnuN2vcYG2oAX09H3vMS-95" value="1:1&lt;br&gt;Kunde" style="edgeStyle=none;rounded=0;orthogonalLoop=1;jettySize=auto;html=1;endArrow=none;endFill=0;" edge="1" parent="1" source="xnuN2vcYG2oAX09H3vMS-93" target="xnuN2vcYG2oAX09H3vMS-57">
          <mxGeometry relative="1" as="geometry">
            <mxPoint x="1471.7964071856286" y="449.40119760479047" as="sourcePoint" />
            <mxPoint x="1477.2222222222226" y="508" as="targetPoint" />
          </mxGeometry>
        </mxCell>
        <mxCell id="xnuN2vcYG2oAX09H3vMS-96" value="0:*&lt;br&gt;boolean" style="edgeStyle=none;rounded=0;orthogonalLoop=1;jettySize=auto;html=1;endArrow=none;endFill=0;" edge="1" parent="1" source="xnuN2vcYG2oAX09H3vMS-94" target="xnuN2vcYG2oAX09H3vMS-93">
          <mxGeometry relative="1" as="geometry">
            <mxPoint x="1585.7142857142862" y="425.2380952380963" as="sourcePoint" />
            <mxPoint x="1508.125" y="508" as="targetPoint" />
          </mxGeometry>
        </mxCell>
        <mxCell id="xnuN2vcYG2oAX09H3vMS-98" value="Lieferantenfahrzeuge" style="rhombus;whiteSpace=wrap;html=1;" vertex="1" parent="1">
          <mxGeometry x="600" y="300" width="160" height="40" as="geometry" />
        </mxCell>
        <mxCell id="xnuN2vcYG2oAX09H3vMS-99" value="Lieferantenkontaktdaten" style="rhombus;whiteSpace=wrap;html=1;" vertex="1" parent="1">
          <mxGeometry x="1000" y="300" width="160" height="40" as="geometry" />
        </mxCell>
        <mxCell id="xnuN2vcYG2oAX09H3vMS-101" value="Lieferant" style="rounded=0;whiteSpace=wrap;html=1;" vertex="1" parent="1">
          <mxGeometry x="840" y="290" width="120" height="60" as="geometry" />
        </mxCell>
        <mxCell id="xnuN2vcYG2oAX09H3vMS-102" value="Firmenname" style="rounded=0;whiteSpace=wrap;html=1;" vertex="1" parent="1">
          <mxGeometry x="840" y="90" width="120" height="60" as="geometry" />
        </mxCell>
        <mxCell id="xnuN2vcYG2oAX09H3vMS-103" value="1:*&lt;br&gt;Fahrzeug" style="edgeStyle=none;rounded=0;orthogonalLoop=1;jettySize=auto;html=1;endArrow=none;endFill=0;" edge="1" parent="1" source="xnuN2vcYG2oAX09H3vMS-1" target="xnuN2vcYG2oAX09H3vMS-98">
          <mxGeometry relative="1" as="geometry">
            <mxPoint x="544.2857142857138" y="480" as="sourcePoint" />
            <mxPoint x="653.4482758620688" y="575.5172413793107" as="targetPoint" />
          </mxGeometry>
        </mxCell>
        <mxCell id="xnuN2vcYG2oAX09H3vMS-104" value="1:1&lt;br&gt;Lieferant" style="edgeStyle=none;rounded=0;orthogonalLoop=1;jettySize=auto;html=1;endArrow=none;endFill=0;" edge="1" parent="1" source="xnuN2vcYG2oAX09H3vMS-98" target="xnuN2vcYG2oAX09H3vMS-101">
          <mxGeometry relative="1" as="geometry">
            <mxPoint x="555" y="420" as="sourcePoint" />
            <mxPoint x="668.181818181818" y="344.54545454545405" as="targetPoint" />
          </mxGeometry>
        </mxCell>
        <mxCell id="xnuN2vcYG2oAX09H3vMS-105" value="1:1&lt;br&gt;Lieferant" style="edgeStyle=none;rounded=0;orthogonalLoop=1;jettySize=auto;html=1;endArrow=none;endFill=0;" edge="1" parent="1" source="xnuN2vcYG2oAX09H3vMS-101" target="xnuN2vcYG2oAX09H3vMS-99">
          <mxGeometry relative="1" as="geometry">
            <mxPoint x="770" y="330" as="sourcePoint" />
            <mxPoint x="850" y="330" as="targetPoint" />
          </mxGeometry>
        </mxCell>
        <mxCell id="xnuN2vcYG2oAX09H3vMS-106" value="1:1&lt;br&gt;Lieferant" style="edgeStyle=none;rounded=0;orthogonalLoop=1;jettySize=auto;html=1;endArrow=none;endFill=0;" edge="1" parent="1" source="xnuN2vcYG2oAX09H3vMS-92" target="xnuN2vcYG2oAX09H3vMS-101">
          <mxGeometry relative="1" as="geometry">
            <mxPoint x="780" y="340" as="sourcePoint" />
            <mxPoint x="860" y="340" as="targetPoint" />
          </mxGeometry>
        </mxCell>
        <mxCell id="xnuN2vcYG2oAX09H3vMS-107" value="1:1&lt;br&gt;Lieferant" style="edgeStyle=none;rounded=0;orthogonalLoop=1;jettySize=auto;html=1;endArrow=none;endFill=0;" edge="1" parent="1" source="xnuN2vcYG2oAX09H3vMS-92" target="xnuN2vcYG2oAX09H3vMS-102">
          <mxGeometry relative="1" as="geometry">
            <mxPoint x="910" y="250" as="sourcePoint" />
            <mxPoint x="910" y="300" as="targetPoint" />
          </mxGeometry>
        </mxCell>
        <mxCell id="xnuN2vcYG2oAX09H3vMS-108" value="1:*&lt;br&gt;Anschrift" style="edgeStyle=none;rounded=0;orthogonalLoop=1;jettySize=auto;html=1;endArrow=none;endFill=0;" edge="1" parent="1" source="xnuN2vcYG2oAX09H3vMS-99" target="xnuN2vcYG2oAX09H3vMS-80">
          <mxGeometry relative="1" as="geometry">
            <mxPoint x="970" y="330" as="sourcePoint" />
            <mxPoint x="1520" y="270" as="targetPoint" />
          </mxGeometry>
        </mxCell>
      </root>
    </mxGraphModel>
  </diagram>
</mxfile>
